<?xml version="1.0" encoding="UTF-8" standalone="no"?>
<svg width="30px" height="37px" viewBox="0 0 30 37" version="1.1" xmlns="http://www.w3.org/2000/svg" xmlns:xlink="http://www.w3.org/1999/xlink" xmlns:sketch="http://www.bohemiancoding.com/sketch/ns">
    <!-- Generator: Sketch 3.4.3 (16618) - http://www.bohemiancoding.com/sketch -->
    <title>Rectangle 13 Copy 3 + Rectangle 13 Copy 2 Copy Copy Copy + treation copy 2</title>
    <desc>Created with Sketch.</desc>
    <defs></defs>
    <g id="homepage-signup-login" stroke="none" stroke-width="1" fill="none" fill-rule="evenodd" sketch:type="MSPage">
        <g id="landing-page" sketch:type="MSArtboardGroup" transform="translate(-218.000000, -36.000000)" stroke-width="2.43" stroke="#FBFBFB">
            <g id="Rectangle-13-Copy-3-+-Rectangle-13-Copy-2-Copy-Copy-Copy-+-treation-copy-2" sketch:type="MSLayerGroup" transform="translate(218.000000, 36.000000)">
                <g id="Rectangle-13-Copy-3-+-Rectangle-13-Copy-2-Copy-Copy-Copy" sketch:type="MSShapeGroup">
                    <g transform="translate(2.000000, 1.000000)">
                        <path d="M0,5.02765907 C0,3.59764545 1.15616378,2.33150363 2.5773335,2.20011723 L18.1027515,0.764800485 C19.5261735,0.633205869 20.680085,1.69247591 20.680085,3.12692275 L20.680085,22.441792 C20.680085,23.8779507 19.5387767,25.2850358 18.1443006,25.5817536 L2.53578435,28.9029459 C1.13530932,29.20094 0,28.2821787 0,26.8532433 L0,5.02765907 Z" id="Rectangle-13-Copy-3" opacity="0.6"></path>
                        <path d="M4.75951323,10.7594428 C4.75951323,9.32527243 5.91567701,8.05910108 7.33684673,7.93182051 L22.8622647,6.54135741 C24.2856867,6.41387513 25.4395982,7.47209736 25.4395982,8.89735827 L25.4395982,27.473248 C25.4395982,28.9019136 24.29829,30.2913496 22.9038139,30.5739248 L7.29529758,33.7368194 C5.89482256,34.0206103 4.75951323,33.0960371 4.75951323,31.653873 L4.75951323,10.7594428 Z" id="Rectangle-13-Copy-2"></path>
                    </g>
                </g>
            </g>
        </g>
    </g>
</svg>